<?xml version="1.0" standalone="no"?>
<!DOCTYPE svg PUBLIC "-//W3C//DTD SVG 20010904//EN"
 "http://www.w3.org/TR/2001/REC-SVG-20010904/DTD/svg10.dtd">
<svg version="1.0" xmlns="http://www.w3.org/2000/svg"
 width="27.000000pt" height="27.000000pt" viewBox="0 0 370.000000 353.000000"
 preserveAspectRatio="xMidYMid meet">
<metadata>
Created by potrace 1.16, written by Peter Selinger 2001-2019
</metadata>
<g transform="translate(0.000000,353.000000) scale(0.100000,-0.100000)"
fill="#000000" stroke="none">
<path d="M1755 3504 c-193 -19 -325 -51 -395 -93 -25 -16 -75 -44 -111 -64
-37 -20 -69 -43 -72 -50 -3 -7 -38 -26 -78 -42 -154 -60 -282 -165 -477 -390
-180 -207 -274 -380 -342 -625 -5 -19 -18 -64 -28 -100 -11 -36 -25 -103 -32
-150 -6 -47 -16 -106 -21 -132 -15 -79 -22 -377 -11 -463 18 -143 52 -329 68
-370 50 -130 204 -329 264 -341 14 -3 53 -30 85 -60 69 -63 108 -86 129 -78 8
3 30 -5 48 -19 52 -39 86 -53 193 -80 177 -45 462 -86 705 -102 52 -3 163 -15
245 -26 271 -35 426 -35 685 2 283 41 540 130 652 227 152 132 214 210 283
357 20 44 53 113 72 154 19 40 37 90 39 110 3 20 9 52 15 71 6 19 13 121 16
225 5 172 3 198 -17 275 -12 46 -32 107 -45 135 -36 75 -73 186 -106 320 -17
66 -37 134 -44 150 -7 17 -28 66 -45 110 -46 119 -67 162 -118 250 -26 44 -57
105 -69 135 -12 30 -30 60 -40 65 -22 13 -55 46 -170 172 -51 56 -113 114
-138 130 -25 15 -65 42 -89 60 -67 49 -283 161 -356 184 -36 12 -117 27 -180
35 -117 14 -442 25 -515 18z m515 -98 c58 -8 128 -21 155 -30 58 -18 282 -135
340 -177 22 -17 61 -44 88 -61 26 -16 82 -69 125 -116 42 -47 105 -116 140
-154 34 -37 62 -73 62 -80 0 -7 26 -58 58 -113 32 -55 75 -143 96 -195 20 -52
46 -115 57 -140 19 -45 55 -171 69 -245 4 -22 17 -62 29 -88 11 -27 21 -55 21
-63 0 -8 10 -34 21 -57 59 -115 71 -173 77 -356 6 -229 -13 -325 -103 -523
-94 -207 -134 -260 -295 -396 -109 -92 -322 -166 -595 -207 -179 -27 -268 -30
-358 -11 -171 36 -339 91 -482 156 -38 18 -90 38 -115 45 -64 18 -250 94 -280
115 -14 10 -50 30 -80 45 -67 34 -159 105 -136 105 21 0 33 30 16 40 -17 11
-40 1 -40 -16 0 -21 -11 -17 -66 24 -28 22 -86 63 -130 92 -89 60 -279 225
-336 291 -75 88 -127 158 -171 231 -40 65 -62 109 -137 273 -15 33 -17 52 -10
110 12 109 29 194 47 234 8 20 23 72 33 116 10 44 34 115 54 158 20 42 36 79
36 82 0 17 133 213 194 285 196 233 324 341 475 401 44 17 97 46 118 64 21 18
58 42 83 55 25 12 57 31 72 41 49 35 202 71 358 83 87 7 406 -4 510 -18z"/>
<path d="M2609 2522 c-64 -33 -115 -101 -124 -166 -16 -104 40 -225 130 -281
38 -23 62 -30 115 -33 61 -4 74 -1 126 28 72 39 112 75 130 117 33 76 3 211
-58 270 -100 95 -217 118 -319 65z m111 -92 c24 -24 25 -48 6 -76 -18 -25 -81
-47 -121 -42 -24 2 -31 10 -39 37 -9 31 -7 36 27 67 44 40 95 46 127 14z"/>
<path d="M1555 2458 c-120 -43 -201 -160 -199 -288 3 -157 120 -273 279 -274
98 -1 150 21 209 89 62 72 86 126 86 196 0 108 -56 203 -153 259 -45 26 -62
30 -122 29 -38 0 -83 -5 -100 -11z m51 -76 c17 -11 34 -48 34 -74 0 -32 -24
-64 -71 -93 -69 -44 -127 -24 -113 39 19 90 102 161 150 128z"/>
<path d="M2339 2131 c-19 -65 -102 -83 -171 -36 -20 14 -44 25 -52 25 -29 0
-16 -37 22 -63 50 -35 121 -44 175 -23 48 18 64 39 73 96 6 36 4 40 -14 40
-16 0 -24 -10 -33 -39z"/>
</g>
</svg>
